<?xml version="1.0" standalone="no"?>
<!DOCTYPE svg PUBLIC "-//W3C//DTD SVG 20010904//EN"
 "http://www.w3.org/TR/2001/REC-SVG-20010904/DTD/svg10.dtd">
<svg version="1.0" xmlns="http://www.w3.org/2000/svg"
 width="1792.000000pt" height="1024.000000pt" viewBox="0 0 1792.000000 1024.000000"
 preserveAspectRatio="xMidYMid meet">

<g transform="translate(0.000000,1024.000000) scale(0.100000,-0.100000)"
fill="#000000" stroke="none">
<path d="M11153 9808 c-6 -7 -16 -58 -22 -113 -6 -55 -14 -117 -17 -138 l-6
-37 -1071 2 -1072 3 -5 50 c-5 45 -8 52 -40 68 -32 16 -62 18 -325 15 -310 -4
-322 -6 -344 -55 -6 -13 -11 -37 -11 -54 l0 -29 -942 2 -943 3 -5 54 c-5 44
-11 58 -38 82 l-33 29 -834 -2 -835 -3 -32 -32 c-25 -25 -32 -42 -34 -75 l-2
-43 -48 -5 c-63 -7 -111 -35 -149 -89 l-30 -43 -1 -1454 c-1 -801 -3 -1457 -5
-1459 -4 -3 -244 -127 -514 -264 -90 -46 -170 -94 -182 -109 -87 -106 -60
-280 54 -349 68 -41 80 -53 545 -577 l98 -110 0 -253 0 -253 -27 -6 c-85 -20
-136 -70 -157 -151 l-11 -45 -126 -2 c-137 -2 -162 -10 -196 -63 -27 -40 -24
-194 4 -230 44 -60 52 -62 261 -66 l194 -3 1 -510 1 -509 -48 -7 c-71 -10 -80
-24 -85 -124 -3 -82 -4 -86 -25 -80 -160 47 -234 47 -273 2 -14 -16 -23 -40
-23 -59 0 -44 45 -180 81 -244 16 -29 29 -55 29 -58 0 -3 -41 -5 -90 -5 -96 0
-160 -21 -174 -55 -22 -59 40 -194 137 -301 50 -54 153 -134 187 -146 7 -2 13
-54 17 -138 3 -86 10 -146 19 -165 10 -19 20 -108 29 -255 14 -208 28 -352 40
-407 l5 -23 -239 0 c-132 0 -246 -3 -255 -6 -19 -7 -21 -45 -4 -62 9 -9 294
-12 1220 -12 1197 0 1207 0 1218 20 8 14 8 26 0 40 -10 19 -23 20 -418 22
-400 3 -407 3 -405 23 2 17 23 360 37 583 2 39 9 69 19 80 13 14 17 46 19 157
3 127 5 140 21 143 11 2 26 10 35 17 10 8 42 32 72 54 106 79 202 222 216 323
5 38 3 49 -19 74 -25 29 -26 29 -136 29 -61 0 -111 3 -111 6 0 4 13 39 30 77
60 141 75 247 42 290 -29 37 -113 39 -229 6 l-23 -6 0 616 0 617 1326 -2
c1215 -2 1325 -3 1319 -18 -39 -94 -134 -384 -161 -491 -71 -279 -66 -414 20
-555 16 -27 32 -52 36 -55 3 -3 17 -22 33 -42 l27 -37 -16 -61 c-14 -55 -14
-66 0 -113 42 -144 191 -240 426 -277 41 -6 207 -14 368 -17 l292 -6 0 -64 c0
-35 5 -73 11 -85 14 -27 69 -48 124 -48 l45 0 1 -145 c1 -80 2 -152 2 -160 0
-31 -4 -35 -28 -35 -14 0 -39 -13 -57 -29 -33 -29 -33 -30 -36 -135 l-4 -106
-36 0 c-90 -1 -647 -90 -786 -126 -121 -31 -166 -72 -166 -149 0 -28 -7 -42
-30 -62 -66 -55 -89 -148 -57 -225 9 -20 13 -39 9 -42 -3 -3 -164 -6 -357 -6
-334 0 -353 -1 -369 -19 -14 -15 -15 -24 -6 -40 l11 -21 1807 0 c4839 -1 5496
0 5504 13 5 7 7 23 6 37 l-3 25 -203 3 -202 2 2 1543 3 1542 131 5 c114 4 135
8 154 25 39 36 50 70 50 160 0 162 -21 175 -280 175 l-182 0 6 27 c3 16 13
127 21 248 26 379 32 421 60 449 19 19 25 36 25 71 0 47 -22 105 -40 105 -18
0 -11 26 31 111 103 209 120 259 140 394 17 114 17 131 4 144 -23 23 -54 5
-131 -80 -70 -76 -123 -165 -189 -317 l-32 -73 -6 92 c-4 51 -7 117 -7 148 0
49 -38 236 -61 299 -9 24 -47 30 -67 10 -15 -15 -13 -193 -15 1769 l-2 1611
-30 44 c-20 28 -49 52 -84 71 l-55 27 -732 0 c-403 0 -735 3 -737 8 -3 4 -11
61 -17 127 -7 66 -17 129 -22 139 -10 18 -19 19 -155 12 -83 -3 -157 -12 -172
-19 -30 -14 -30 -22 -17 -175 l8 -93 -74 3 c-66 3 -73 5 -71 23 2 11 6 66 9
122 6 83 4 103 -7 107 -13 5 -290 46 -308 46 -5 0 -13 -6 -18 -12z m195 -74
c40 -4 75 -10 77 -14 2 -4 0 -47 -6 -96 -5 -49 -18 -169 -28 -267 -10 -98 -21
-181 -25 -184 -5 -6 -216 13 -222 19 -3 4 21 251 41 413 8 71 15 134 15 139 0
5 17 6 38 3 20 -4 70 -9 110 -13z m562 -1 c0 -10 11 -135 24 -278 14 -143 24
-261 23 -262 -7 -6 -233 -21 -238 -15 -7 7 -33 272 -45 454 l-7 97 34 5 c19 3
59 7 89 9 30 2 70 4 88 5 24 2 32 -2 32 -15z m-5638 -121 c13 -13 24 -244 27
-554 1 -88 4 -106 15 -102 11 4 15 37 18 149 1 79 7 147 11 152 5 4 433 9 952
11 l943 2 4 -89 c2 -50 6 -92 9 -95 8 -8 92 -9 374 -8 278 2 280 2 309 26 27
21 30 31 34 90 5 74 22 91 22 21 0 -32 5 -47 15 -52 25 -9 28 1 34 100 1 4
267 7 591 7 l590 0 1 -102 c1 -57 5 -177 8 -268 l6 -165 274 -3 c164 -1 279 2
284 7 6 6 9 105 8 238 0 125 2 243 5 261 l6 32 136 0 135 0 -6 -65 c-4 -37 -2
-67 3 -70 13 -8 343 -45 349 -39 2 2 6 30 8 62 8 110 0 103 111 100 l97 -3 8
-70 c5 -38 12 -73 16 -77 9 -10 333 12 345 23 5 5 8 37 7 72 l-2 64 718 -1
718 -1 2 -1665 c3 -1664 3 -1665 -17 -1632 -24 39 -61 43 -84 10 -30 -42 -21
-226 19 -423 19 -93 37 -181 41 -195 4 -14 5 -23 2 -20 -7 6 -98 214 -134 304
-17 44 -49 94 -84 135 -30 36 -70 85 -89 109 -57 73 -119 66 -106 -13 4 -22
11 -65 15 -95 13 -86 34 -158 74 -247 115 -263 115 -263 93 -263 -32 0 -52
-40 -51 -102 1 -49 5 -63 25 -82 23 -21 25 -37 48 -269 13 -136 21 -250 17
-255 -4 -4 -71 -8 -149 -10 -139 -3 -143 -3 -177 22 -130 95 -190 116 -322
116 -148 -1 -224 -26 -318 -106 -30 -26 -57 -41 -63 -37 -7 4 -68 10 -137 13
l-124 5 -8 39 c-19 90 -100 166 -231 217 -123 47 -191 45 -330 -9 -60 -23
-140 -60 -179 -82 l-70 -40 -82 77 c-45 43 -114 103 -154 133 -124 94 -116 97
248 102 l295 3 51 27 c67 35 111 80 140 143 l24 50 0 1313 c0 1162 -2 1317
-15 1350 -20 47 -50 79 -97 103 -35 18 -67 19 -619 19 l-582 0 -68 64 c-111
106 -238 166 -348 166 l-58 0 -57 73 c-121 154 -246 225 -462 263 -164 29
-374 -5 -540 -88 l-86 -42 -19 23 c-21 26 -25 90 -8 124 6 12 23 34 36 49 14
14 22 31 19 37 -22 36 -144 -15 -206 -85 -98 -112 -105 -244 -20 -364 23 -32
26 -29 -76 -88 -39 -23 -96 -61 -125 -84 l-54 -43 -600 0 c-595 0 -600 0 -640
-22 -27 -14 -51 -40 -75 -79 l-35 -58 0 -1326 0 -1325 28 -48 c32 -55 111
-121 165 -138 23 -8 132 -14 295 -16 231 -4 258 -6 266 -22 8 -14 -2 -26 -57
-66 l-67 -50 -120 -6 c-125 -7 -254 -39 -321 -80 -41 -25 -77 -81 -100 -153
-15 -49 -22 -58 -46 -63 -16 -3 -30 -9 -33 -12 -2 -4 -34 -4 -72 0 -37 5 -139
8 -225 8 l-158 1 0 238 c0 130 -3 246 -6 257 -3 14 11 45 45 97 28 42 51 79
51 81 0 4 84 152 110 194 12 18 11 25 -2 46 -21 30 -83 60 -111 53 -12 -3 -35
-26 -50 -51 -43 -68 -50 -67 -42 9 4 36 5 76 1 89 -11 44 -89 62 -120 28 -20
-22 -86 -202 -86 -235 0 -12 -6 -30 -13 -40 -12 -17 -14 -17 -20 -2 -4 10 -18
16 -36 16 -28 0 -29 3 -36 53 -13 98 -57 226 -93 270 -18 20 -65 23 -80 4 -6
-7 -23 -60 -37 -118 l-26 -105 -33 4 c-43 5 -66 -18 -66 -66 0 -35 -14 -72
-23 -62 -2 3 -22 37 -45 75 -50 86 -66 105 -92 105 -37 0 -90 -28 -102 -54
-12 -28 8 -83 99 -259 42 -82 44 -91 32 -114 -11 -20 -14 -82 -14 -267 l0
-241 -170 1 c-93 1 -230 5 -304 10 l-135 9 -28 110 c-26 101 -27 116 -17 186
9 62 8 82 -4 110 -34 81 -122 148 -195 149 -37 0 -49 10 -201 173 l-101 107 0
100 c0 68 -4 100 -11 100 -8 0 -10 -27 -7 -92 l6 -92 -54 60 c-29 32 -51 65
-49 72 2 6 0 12 -6 12 -6 0 -7 5 -4 10 4 6 10 8 15 5 4 -3 6 4 3 16 -3 12 0
25 7 29 7 4 9 13 5 21 -6 9 -11 6 -19 -12 -9 -19 -12 9 -14 130 -2 107 1 157
9 161 8 5 8 9 0 14 -5 4 -9 26 -8 50 1 35 5 42 18 39 9 -3 20 1 24 8 6 8 4 10
-6 4 -10 -6 -10 -4 1 7 8 8 27 20 43 26 25 11 27 10 27 -13 0 -13 5 -27 11
-31 8 -5 10 4 7 28 -2 19 2 40 8 46 7 6 83 47 170 91 88 44 210 107 272 140
61 32 121 61 132 64 11 3 27 21 35 41 14 34 40 53 100 76 22 8 28 5 55 -36
l31 -44 -17 -70 c-26 -110 -16 -245 25 -332 39 -82 96 -143 143 -152 92 -17
320 63 473 167 136 93 322 303 340 386 17 76 -84 202 -221 273 -90 47 -159 67
-262 75 l-83 6 -49 73 c-43 63 -130 174 -166 211 -6 7 -25 15 -40 19 -16 4
-36 13 -44 20 -52 45 -157 56 -225 25 -49 -22 -99 -77 -115 -126 -12 -35 -10
-111 3 -145 5 -11 -58 -46 -266 -148 -150 -73 -275 -132 -279 -132 -5 0 -8 28
-9 63 0 34 -4 71 -8 82 -8 19 -8 19 -15 -3 -4 -13 -5 -54 -1 -91 6 -58 4 -69
-10 -75 -9 -3 -22 -3 -27 1 -6 3 -8 2 -5 -4 5 -8 -51 -43 -68 -43 -3 0 -5 345
-5 767 0 421 2 764 5 761 3 -2 5 -137 6 -300 1 -163 5 -302 10 -309 6 -9 9 1
9 29 0 29 4 42 14 42 10 0 16 -22 22 -82 4 -46 9 -72 11 -58 7 48 13 70 22 70
9 0 11 -17 14 -150 5 -195 7 -216 17 -199 23 40 37 674 41 1834 1 199 5 316
10 295 4 -19 12 -54 17 -78 13 -59 23 -65 22 -12 0 25 2 135 6 245 4 148 10
206 20 223 l15 22 809 -2 c647 -2 812 -6 822 -16z m2629 -169 c0 -82 2 -168 5
-193 3 -25 2 -60 -1 -78 l-6 -32 -297 2 -297 3 -3 214 c-2 165 1 216 10 223 7
4 142 8 301 8 l287 0 1 -147z m1661 37 c50 -14 57 -41 23 -86 -21 -28 -26 -43
-23 -82 l3 -47 89 -3 88 -3 -4 -214 c-2 -118 -7 -218 -11 -222 -9 -8 -416 -25
-428 -17 -5 3 -9 106 -9 230 l0 224 89 0 89 0 6 36 c6 29 2 44 -23 83 -39 61
-39 78 2 96 39 17 61 18 109 5z m-6020 -87 c3 -65 2 -67 -24 -77 -22 -8 -28
-17 -28 -41 0 -16 0 -198 -1 -404 0 -280 -3 -379 -12 -390 -10 -12 -9 -13 2
-6 11 6 13 3 8 -16 -4 -13 -7 -50 -7 -81 l0 -58 -40 0 c-39 0 -40 1 -41 38 0
20 -3 31 -6 24 -3 -7 -2 -33 2 -58 5 -35 10 -44 26 -44 16 0 19 -7 19 -41 0
-39 -2 -41 -25 -37 -24 5 -24 3 -28 -66 -1 -39 -4 221 -5 577 -2 561 0 652 13
677 13 26 47 54 67 55 3 0 10 3 14 8 4 4 20 7 35 7 27 0 27 -1 31 -67z m3698
-8 l0 -65 -70 0 c-38 0 -70 4 -70 8 0 12 -47 32 -75 32 -18 0 -25 5 -25 20 0
17 -7 20 -40 20 -34 0 -40 -3 -40 -21 0 -20 -4 -20 -207 -20 -115 0 -257 1
-318 1 -141 0 -195 7 -195 26 0 11 -17 14 -80 14 -73 0 -80 -2 -80 -20 0 -19
-7 -20 -102 -21 -339 -3 -338 -3 -338 21 0 13 -7 20 -19 20 -10 0 -21 -9 -24
-20 -4 -15 -14 -20 -40 -20 -20 0 -46 -9 -61 -21 -18 -14 -37 -19 -63 -17
l-38 3 -3 63 -3 62 946 0 945 0 0 -65z m2127 51 c-3 -8 7 -32 23 -54 16 -21
27 -42 23 -46 -3 -3 -48 -6 -98 -6 -75 0 -92 3 -92 15 0 8 4 15 9 15 4 0 8 9
8 20 0 13 -7 20 -20 20 -13 0 -20 7 -20 20 0 19 -7 20 -260 20 -253 0 -260 -1
-260 -20 0 -19 -7 -20 -99 -20 -54 0 -126 -3 -160 -6 -50 -6 -61 -10 -61 -25
0 -15 -7 -19 -37 -18 -41 0 -94 17 -60 18 24 1 22 31 -3 31 -11 0 -20 -7 -20
-15 0 -10 -10 -15 -29 -15 -57 0 -91 -12 -91 -31 0 -13 -7 -19 -24 -19 -13 0
-26 5 -28 12 -3 8 -9 8 -19 2 -8 -5 -29 -9 -46 -9 l-33 -1 0 63 0 62 701 1
c600 0 700 -2 696 -14z m725 -21 c-4 -36 -4 -36 -46 13 l-19 22 34 0 c34 0 35
-1 31 -35z m528 11 c0 -7 3 -35 6 -62 4 -36 3 -45 -5 -34 -8 11 -11 11 -11 2
0 -10 -18 -12 -72 -10 l-73 3 -1 50 c-1 28 1 55 3 60 5 16 153 6 153 -9z m563
17 c-13 -2 -33 -2 -45 0 -13 2 -3 4 22 4 25 0 35 -2 23 -4z m225 0 c-21 -2
-55 -2 -75 0 -21 2 -4 4 37 4 41 0 58 -2 38 -4z m430 0 c-27 -2 -69 -2 -95 0
-27 2 -5 3 47 3 52 0 74 -1 48 -3z m330 0 c-21 -2 -55 -2 -75 0 -21 2 -4 4 37
4 41 0 58 -2 38 -4z m179 1 c-3 -3 -12 -4 -19 -1 -8 3 -5 6 6 6 11 1 17 -2 13
-5z m91 -31 c2 -9 -9 -13 -37 -13 -30 0 -41 4 -41 16 0 11 9 14 37 12 20 -2
38 -9 41 -15z m75 -5 c-2 -5 4 -8 15 -8 10 0 24 -11 30 -25 9 -19 12 -436 12
-1637 0 -1066 4 -1653 11 -1737 8 -98 8 -147 -2 -221 -9 -62 -16 -86 -19 -70
-3 14 -14 43 -24 65 -17 38 -18 118 -17 1755 2 1175 -1 1725 -8 1743 -7 17
-24 34 -45 42 -19 8 -38 20 -42 26 -4 8 -3 9 4 5 19 -11 14 5 -5 20 -17 11
-16 13 10 23 16 6 36 11 45 12 11 1 8 4 -8 9 -22 7 -20 8 12 7 20 -1 34 -5 31
-9z m-1494 -72 c-5 -6 -9 7 -8 35 l1 44 8 -35 c5 -20 5 -39 -1 -44z m-937 9
c-2 -14 -8 -25 -12 -25 -10 0 -8 20 3 38 12 18 15 15 9 -13z m-1464 8 c-32 -2
-86 -2 -120 0 -35 2 -9 3 57 3 66 0 94 -1 63 -3z m-400 -10 c-10 -2 -28 -2
-40 0 -13 2 -5 4 17 4 22 1 32 -1 23 -4z m600 0 c-10 -2 -28 -2 -40 0 -13 2
-5 4 17 4 22 1 32 -1 23 -4z m-575 -896 c37 -28 64 -54 60 -58 -5 -4 -35 -3
-68 3 -45 7 -97 5 -210 -7 -159 -18 -226 -17 -232 2 -6 16 128 78 197 92 85
18 164 28 175 23 6 -3 40 -28 78 -55z m-123 -217 c0 -5 -13 -10 -29 -10 -72 0
-278 -62 -396 -120 -156 -76 -210 -119 -447 -352 -109 -107 -198 -190 -198
-185 0 23 93 199 134 253 99 132 269 267 401 318 58 22 268 76 355 91 93 16
180 18 180 5z m912 -95 c154 -62 279 -200 343 -378 23 -61 43 -177 32 -177 -4
0 -11 19 -17 43 -46 171 -227 367 -452 489 -32 17 -58 34 -58 38 0 27 62 21
152 -15z m-1062 -26 c-8 -5 -33 -19 -55 -31 -22 -11 -64 -36 -94 -55 -52 -34
-53 -35 -32 -49 29 -21 26 -50 -9 -85 -40 -40 -83 -38 -88 4 l-3 28 -50 -48
c-60 -57 -147 -186 -196 -289 -20 -41 -38 -73 -40 -70 -9 9 28 118 73 212 39
82 59 109 137 187 51 51 117 107 147 124 79 46 266 111 210 72z m432 -94 c-40
-19 -94 -48 -120 -66 -35 -24 -42 -26 -27 -9 31 34 73 61 134 86 86 36 95 28
13 -11z m743 -60 c38 -38 44 -65 20 -85 -33 -27 -105 30 -105 83 0 49 36 50
85 2z m-1955 -20 c-11 -13 -86 -15 -567 -15 -577 0 -572 0 -622 -44 -23 -20
-23 -20 -13 -1 14 27 42 52 72 64 15 6 240 10 584 10 495 1 557 -1 546 -14z
m3300 0 c34 -17 70 -61 70 -84 -1 -11 -4 -10 -13 7 -33 59 -12 57 -616 62
-431 4 -555 8 -559 18 -3 9 110 12 543 12 462 0 550 -2 575 -15z m-2271 -32
c-8 -9 -40 -44 -72 -78 -32 -33 -84 -100 -115 -148 -31 -48 -58 -84 -60 -78
-10 29 104 192 186 268 55 51 89 71 61 36z m2098 -105 c-3 -8 -6 -5 -6 6 -1
11 2 17 5 13 3 -3 4 -12 1 -19z m153 -28 l0 -50 -70 0 -70 0 0 50 0 50 70 0
70 0 0 -50z m-153 -22 c-3 -7 -5 -2 -5 12 0 14 2 19 5 13 2 -7 2 -19 0 -25z
m-3757 -45 l115 -8 -74 -6 c-44 -3 -76 -10 -79 -17 -5 -15 -86 -72 -101 -72
-21 0 -11 29 12 33 20 4 20 4 -4 6 l-26 1 -12 -122 c-7 -68 -15 -134 -19 -148
-9 -40 -20 65 -21 213 l-1 127 48 0 c26 0 99 -3 162 -7z m460 2 c0 -3 -9 -24
-19 -48 -35 -76 -51 -119 -51 -139 0 -10 -4 -17 -8 -14 -5 3 -8 -56 -7 -132 1
-120 4 -146 27 -208 14 -39 40 -90 57 -114 17 -23 28 -47 24 -53 -3 -6 -1 -7
5 -3 6 3 16 -2 22 -13 6 -11 31 -36 56 -55 43 -33 44 -35 22 -42 -13 -4 -48
-26 -79 -50 -31 -24 -60 -40 -64 -36 -5 4 -5 1 -1 -5 4 -7 3 -13 -1 -13 -9 0
-16 -11 -52 -86 -13 -27 -28 -57 -32 -66 -15 -30 -10 -134 10 -197 10 -34 16
-61 13 -61 -3 0 5 -8 16 -19 12 -10 22 -23 22 -28 0 -6 7 -16 15 -23 8 -7 12
-17 8 -24 -3 -6 -3 -8 2 -4 4 4 23 -8 42 -26 102 -96 290 -129 402 -72 28 15
30 15 57 -22 34 -46 121 -132 134 -132 6 0 10 -4 10 -9 0 -5 10 -11 21 -14 13
-3 19 -11 17 -19 -4 -9 5 -14 29 -15 19 -1 40 -6 46 -11 7 -4 32 -14 57 -21
89 -26 92 -27 88 -69 -3 -33 -7 -38 -43 -50 -62 -21 -226 -55 -267 -55 -20 -1
-35 -4 -32 -8 2 -4 -20 -15 -48 -25 -85 -28 -170 -70 -223 -111 -64 -48 -62
-47 -114 -91 l-44 -37 -176 -5 c-97 -3 -200 -2 -230 2 -29 4 -64 2 -78 -3 -13
-5 -86 -9 -161 -9 -125 0 -134 1 -116 16 15 12 15 15 2 10 -15 -4 -16 24 -18
363 0 202 2 375 6 385 10 26 24 0 24 -46 0 -20 4 -38 10 -40 5 -2 6 -27 2 -63
l-7 -60 -6 45 c-3 25 -6 -94 -7 -263 0 -229 3 -307 11 -304 7 2 17 18 23 36 9
28 12 30 23 17 7 -9 17 -13 22 -10 5 3 8 0 7 -6 -4 -15 265 -16 270 0 2 5 22
10 45 11 34 1 37 2 17 8 -13 4 38 7 114 7 107 1 140 4 148 15 7 11 11 11 15 2
9 -23 34 -14 73 27 31 32 46 40 74 40 25 0 36 4 36 15 0 8 5 15 10 15 6 0 10
8 10 18 0 14 2 15 10 2 6 -10 10 -11 10 -2 0 6 8 12 18 12 10 0 24 9 32 20 12
16 26 20 72 20 51 0 58 2 58 20 0 13 7 20 20 20 11 0 20 5 20 10 0 6 9 10 20
10 11 0 20 4 20 9 0 6 17 11 38 13 36 3 37 4 40 47 4 52 -4 59 -64 55 -24 -2
-44 1 -44 6 0 13 -49 60 -62 60 -6 0 -16 8 -23 17 -9 12 -24 17 -49 15 -31 -3
-36 -1 -36 17 0 17 -6 21 -32 21 -25 0 -29 -3 -18 -10 11 -7 7 -10 -17 -10
-18 0 -33 4 -33 9 0 4 -27 11 -60 15 -33 4 -60 11 -60 16 0 6 -13 10 -30 10
-20 0 -30 -5 -30 -15 0 -8 -9 -15 -20 -15 -13 0 -20 7 -20 20 0 13 -7 20 -20
20 -20 0 -25 15 -22 65 1 18 0 18 -10 -2 -14 -28 -28 -30 -28 -3 0 17 -7 20
-40 20 l-40 0 0 60 c0 54 -2 60 -20 60 -19 0 -20 5 -15 48 3 26 7 67 10 92 2
25 9 46 15 48 13 5 13 52 0 52 -5 0 -10 7 -10 17 0 9 3 14 6 10 9 -9 34 19 34
38 0 11 -5 15 -15 12 -21 -9 -29 11 -12 28 8 8 18 31 22 52 3 21 20 59 36 84
16 25 29 54 30 65 1 15 3 13 9 -6 7 -21 8 -19 9 18 1 23 -3 42 -9 42 -5 0 -10
16 -10 36 0 35 -21 70 -34 56 -4 -3 -4 1 0 11 3 10 1 17 -5 17 -6 0 -11 7 -11
15 0 8 -6 15 -14 15 -11 0 -15 14 -14 59 1 61 -7 85 -23 75 -10 -6 -7 188 3
231 12 48 21 63 39 68 20 5 26 41 9 52 -5 3 -10 24 -10 46 0 21 -4 39 -10 39
-5 0 -10 11 -10 25 0 21 -5 25 -32 26 l-33 2 35 7 c41 9 170 12 170 5z m2558
-7 l57 -1 -65 -7 c-36 -4 -53 -7 -38 -8 l27 -2 -5 -109 c-4 -89 -2 -112 11
-124 16 -16 20 -37 8 -37 -5 0 -9 -25 -9 -55 -2 -61 -8 -85 -24 -85 -6 0 -10
47 -10 128 0 89 -6 154 -20 216 -24 108 -24 100 -4 92 9 -3 41 -7 72 -8z m890
-239 l-3 -61 -60 -1 -60 -1 -3 62 -3 62 66 0 66 0 -3 -61z m-78 -175 c0 -8 -5
-12 -10 -9 -6 4 -8 11 -5 16 9 14 15 11 15 -7z m-873 -9 c0 -8 -4 -15 -9 -15
-10 0 -11 14 -1 23 9 10 10 9 10 -8z m18 -54 c0 -22 -3 -34 -7 -28 -9 15 -10
13 -8 -100 l1 -93 -25 0 c-19 0 -26 5 -26 19 0 14 -5 18 -20 14 -20 -5 -29
-33 -10 -33 6 0 10 -22 10 -50 0 -29 -5 -50 -11 -50 -6 0 3 -13 19 -30 17 -16
36 -30 44 -30 8 0 9 -3 2 -8 -6 -4 -13 -15 -17 -25 -7 -18 -23 -19 -43 -2 -31
26 -53 42 -86 59 -36 18 -36 18 -22 52 20 48 89 155 96 148 3 -3 6 1 5 8 0 7
5 28 12 46 15 37 47 46 38 9 -4 -12 -2 -29 3 -37 7 -10 10 2 10 40 0 41 -3 51
-11 40 -8 -12 -9 -11 -6 5 3 11 8 32 11 47 3 14 14 29 24 31 9 3 17 5 17 6 0
0 0 -17 0 -38z m944 -46 c2 -3 -28 -5 -68 -5 -40 0 -70 4 -67 9 5 8 126 5 135
-4z m-12 -29 c1 -1 -1 -24 -5 -51 l-7 -50 -63 -3 -62 -3 0 58 0 59 68 -4 c37
-2 68 -5 69 -6z m-6173 -42 c20 -8 21 -24 2 -24 -13 0 -55 -29 -122 -84 -40
-33 -48 -33 -40 0 19 73 103 130 160 108z m229 -151 c35 -49 85 -120 111 -159
l47 -71 107 -5 c100 -4 113 -7 197 -47 96 -45 164 -101 195 -162 22 -42 18
-49 -22 -49 -72 0 -225 -71 -393 -183 -153 -101 -169 -111 -162 -94 5 14 -17
32 -35 29 -5 -1 -8 5 -8 13 0 8 -7 15 -15 15 -8 0 -15 -3 -15 -8 0 -4 -10 -12
-22 -17 -19 -8 -27 -6 -45 12 -24 23 -31 53 -13 53 18 0 10 22 -10 27 -17 5
-20 14 -20 69 0 36 -4 64 -10 64 -5 0 -10 -5 -10 -12 0 -6 -3 -8 -6 -5 -4 4
-1 13 6 22 16 20 46 71 65 113 18 37 27 18 -104 217 -88 132 -99 147 -112 139
-4 -2 -11 1 -14 7 -19 30 119 119 186 119 35 0 41 -5 102 -87z m5977 57 c0 -6
-23 -9 -52 -8 l-53 1 50 7 c28 4 51 8 53 8 1 1 2 -2 2 -8z m-1023 -77 c-3 -10
-5 -4 -5 12 0 17 2 24 5 18 2 -7 2 -21 0 -30z m652 -180 c1 -69 -3 -113 -9
-113 -6 0 -10 60 -9 163 1 117 4 148 9 112 5 -27 9 -101 9 -162z m341 37 l0
-70 -64 0 -63 0 -7 54 c-9 81 -5 86 70 86 l64 0 0 -70z m-3268 -36 c5 -35 3
-41 -23 -62 -64 -51 -89 -154 -57 -232 34 -80 96 -128 196 -149 73 -15 78 -14
56 12 -10 12 -2 6 19 -12 20 -19 37 -38 37 -41 0 -15 -55 -30 -110 -30 -159 0
-298 121 -316 276 -8 62 7 117 48 179 31 46 112 109 133 102 5 -2 13 -21 17
-43z m2158 2 c61 -44 101 -120 107 -201 13 -161 -137 -315 -309 -315 -37 0
-78 5 -92 11 l-25 12 37 49 c20 27 38 44 40 38 2 -5 12 -10 23 -10 10 0 19 -4
19 -10 0 -19 36 -10 84 21 58 36 65 43 94 90 49 80 34 177 -36 244 -35 33 -37
42 -20 80 15 32 24 31 78 -9z m-5303 -16 l11 -30 -41 0 c-74 -1 -118 -16 -161
-59 -24 -23 -91 -66 -161 -102 -66 -33 -142 -73 -170 -87 -27 -14 -52 -26 -55
-27 -3 0 -39 -18 -80 -39 -41 -22 -93 -48 -115 -58 -22 -10 -47 -23 -55 -29
-46 -30 -301 -151 -306 -146 -4 4 8 13 27 21 24 11 28 15 14 16 -11 0 -33 -7
-49 -15 -31 -16 -56 -20 -56 -7 0 4 197 105 438 224 240 120 502 251 582 292
80 41 150 75 155 75 6 1 16 -12 22 -29z m5459 2 c1 -7 0 -8 -3 -2 -2 5 -9 8
-14 4 -5 -3 -9 0 -9 6 0 15 23 7 26 -8z m59 -2 c16 -18 13 -22 -12 -19 -5 1
-7 5 -5 10 1 5 -2 9 -8 9 -5 0 -10 5 -10 10 0 16 15 12 35 -10z m3 -33 c9 4
12 -30 12 -149 0 -87 -4 -147 -9 -140 -6 10 -10 8 -16 -10 -4 -12 -8 -27 -9
-32 -3 -23 -26 -16 -26 9 0 14 4 24 9 21 4 -3 13 6 20 20 16 35 13 44 -4 14
l-15 -25 6 26 c14 63 8 219 -8 219 -4 0 -8 14 -8 30 0 26 3 29 18 22 9 -5 23
-7 30 -5z m-5569 -61 c18 -22 56 -27 103 -15 24 6 52 13 63 15 13 3 24 -2 33
-16 12 -19 10 -22 -24 -36 -30 -12 -38 -13 -45 -3 -4 7 -27 14 -51 15 -24 1
-60 6 -81 9 -33 6 -42 4 -68 -21 -16 -15 -32 -24 -36 -21 -11 11 19 57 47 72
32 18 45 18 59 1z m6121 -66 c0 -11 -4 -20 -10 -20 -5 0 -10 9 -10 20 0 11 5
20 10 20 6 0 10 -9 10 -20z m-6130 -40 c0 -5 -4 -10 -10 -10 -5 0 -10 5 -10
10 0 6 5 10 10 10 6 0 10 -4 10 -10z m6476 -37 c-3 -21 -6 -50 -6 -65 0 -28
-1 -28 -65 -28 l-65 0 0 65 0 65 71 0 72 0 -7 -37z m-6636 13 c0 -7 -64 -46
-142 -86 -177 -90 -188 -94 -188 -75 0 10 60 46 158 94 86 44 160 80 165 80 4
1 7 -5 7 -13z m216 -15 c-22 -24 -65 -36 -79 -22 -8 8 -2 11 19 11 18 0 38 8
49 20 10 11 20 18 23 15 3 -3 -3 -14 -12 -24z m-169 -68 c2 -6 -30 -32 -71
-58 -41 -25 -80 -53 -86 -61 -7 -8 -21 -14 -31 -14 -11 0 -19 -5 -19 -12 0 -6
-3 -8 -7 -5 -3 4 -21 -3 -40 -14 -18 -11 -33 -18 -33 -14 0 3 -10 -3 -22 -14
-11 -11 -25 -18 -30 -15 -4 3 -8 0 -8 -5 0 -6 -6 -11 -13 -11 -7 0 -65 -27
-130 -60 -64 -33 -118 -60 -119 -59 -6 1 -63 -23 -68 -29 -3 -4 -29 -18 -57
-31 -29 -13 -61 -32 -71 -42 -21 -19 -72 -15 -72 5 0 7 138 83 308 169 169 86
361 186 427 221 120 64 136 69 142 49z m1226 -93 c-68 -115 -234 -245 -383
-299 -63 -22 -161 -44 -168 -36 -13 13 77 99 179 170 127 89 326 195 365 195
l25 0 -18 -30z m4407 15 c0 -8 -4 -15 -10 -15 -5 0 -7 7 -4 15 4 8 8 15 10 15
2 0 4 -7 4 -15z m-6060 -29 c0 -5 -65 -46 -74 -46 -17 0 -2 19 27 34 32 16 47
19 47 12z m-142 -78 c-6 -18 -314 -175 -324 -165 -14 13 18 34 156 105 134 69
176 84 168 60z m6152 -1 c0 -8 -11 -19 -25 -25 -17 -8 -25 -20 -25 -37 0 -25
-20 -55 -36 -55 -4 0 -16 -7 -26 -17 -10 -9 -33 -16 -53 -15 -26 1 -35 -3 -40
-18 -4 -11 -9 -20 -13 -21 -4 -1 -50 -2 -102 -4 -52 -2 -97 -5 -100 -6 -14 -6
-120 -4 -120 3 0 20 -29 5 -32 -16 -3 -21 -5 -23 -20 -12 -15 11 -11 19 47 81
l63 69 54 -13 c69 -16 143 -19 193 -8 22 5 47 10 55 11 8 1 25 7 36 13 12 7
25 9 29 5 5 -4 5 -2 2 5 -4 6 4 15 21 21 15 5 36 19 47 30 23 24 45 28 45 9z
m50 -47 c0 -16 -4 -30 -10 -30 -5 0 -10 14 -10 30 0 17 5 30 10 30 6 0 10 -13
10 -30z m962 -125 l-4 -65 -69 0 -69 0 0 65 0 65 73 0 72 0 -3 -65z m-7611 35
c67 -35 102 -115 79 -184 -18 -56 -90 -123 -90 -84 0 6 3 8 7 5 9 -9 34 13 27
24 -3 5 0 9 6 9 6 0 9 4 6 9 -3 5 0 11 8 14 19 7 27 61 15 96 -6 17 -14 29
-17 28 -4 -1 -23 10 -42 24 -19 15 -45 30 -56 33 -41 13 -116 -33 -135 -81 -8
-23 -49 -33 -49 -13 0 18 37 84 56 101 47 41 126 49 185 19z m5963 -95 c-4 -8
-2 -15 4 -15 7 0 6 -12 -1 -35 -12 -40 -36 -51 -95 -42 -20 3 -31 3 -24 0 6
-2 12 -13 12 -24 0 -10 6 -19 14 -19 8 0 18 -9 21 -20 5 -15 15 -20 41 -20 19
0 34 -4 34 -10 0 -5 14 -10 30 -10 17 0 30 -4 30 -10 0 -5 9 -10 19 -10 11 0
23 -5 26 -11 4 -5 17 -14 30 -19 13 -5 25 -19 27 -32 3 -26 38 -39 38 -14 0 9
5 16 10 16 6 0 10 -4 10 -10 0 -5 7 -10 16 -10 18 0 47 -27 41 -37 -3 -5 6 -9
19 -9 13 -1 48 -14 76 -30 29 -15 63 -32 75 -38 13 -6 23 -14 23 -18 0 -5 11
-8 25 -8 18 0 25 -5 25 -20 0 -13 7 -20 20 -20 11 0 20 -4 20 -10 0 -14 86
-13 112 1 16 9 22 8 29 -2 9 -14 54 -17 362 -18 82 -1 137 -5 137 -11 0 -6
-90 -8 -251 -5 -197 4 -256 2 -277 -9 -31 -15 -137 -21 -169 -9 -26 10 -129
104 -125 115 1 4 -5 8 -13 8 -8 0 -29 8 -47 19 -70 39 -113 65 -118 71 -3 3
-16 7 -30 8 -14 2 -36 10 -50 17 -33 17 -137 47 -281 82 l-117 28 -6 35 c-3
22 -1 39 7 46 11 11 160 59 182 59 6 0 16 8 23 18 7 9 19 17 26 17 8 0 19 7
26 15 7 8 14 15 16 15 2 0 1 -7 -2 -15z m-6006 -11 c42 -29 18 -104 -34 -104
-50 0 -72 62 -34 100 24 24 38 25 68 4z m487 -342 c-3 -13 -9 -22 -13 -20 -19
8 -236 252 -227 255 6 2 60 30 120 61 l110 59 8 -166 c4 -91 5 -176 2 -189z
m7176 317 c9 -5 -17 -9 -68 -9 -46 0 -83 4 -83 9 0 12 133 12 151 0z m-2445
-28 c26 -25 243 -40 314 -22 19 5 47 12 63 15 l27 6 0 -78 c0 -90 8 -106 65
-125 l40 -14 -44 -22 c-144 -74 -363 -78 -520 -10 -28 12 -51 25 -51 30 0 4
15 13 34 20 40 14 46 34 46 140 0 67 5 79 26 60z m4648 -27 c8 -20 -1 -34 -20
-34 -8 0 -14 8 -14 18 0 33 23 44 34 16z m-270 -9 c3 -8 1 -15 -3 -15 -5 0
-17 -3 -26 -7 -15 -5 -16 -3 -6 15 14 26 27 28 35 7z m-340 -51 c9 -24 7 -34
-8 -34 -13 0 -26 20 -26 41 0 15 27 10 34 -7z m1019 -22 c-6 -24 -23 -30 -23
-9 0 13 21 39 26 34 2 -2 1 -13 -3 -25z m-639 -50 c15 -30 24 -57 20 -62 -5
-4 -28 -11 -51 -15 l-41 -6 -4 71 c-3 71 -3 71 22 68 19 -2 32 -16 54 -56z
m234 45 c6 -7 14 -39 18 -69 l7 -56 -44 5 c-24 3 -46 7 -48 9 -2 2 2 27 9 56
16 65 35 83 58 55z m-9880 -9 c-6 -17 -37 -23 -51 -9 -7 7 -2 8 14 5 19 -5 21
-4 9 5 -12 9 -11 11 8 11 15 0 22 -5 20 -12z m447 -239 c273 -285 411 -432
419 -446 5 -10 3 -21 -8 -31 -15 -15 -24 -8 -114 83 -53 55 -137 145 -186 200
-49 55 -139 152 -200 215 -147 151 -159 166 -143 191 11 19 15 16 67 -38 30
-32 104 -110 165 -174z m8892 169 c18 -18 33 -39 33 -47 0 -9 -17 -25 -39 -37
-37 -20 -39 -20 -50 -2 -6 10 -14 38 -17 62 -7 45 -7 44 36 55 2 0 19 -13 37
-31z m917 16 c9 -8 14 -19 12 -22 -2 -4 -9 -26 -15 -50 -12 -41 -13 -42 -34
-27 -12 8 -32 15 -44 15 -33 0 -29 23 11 64 37 40 48 43 70 20z m-2924 -54 c0
-22 -4 -40 -10 -40 -5 0 -10 18 -10 40 0 22 5 40 10 40 6 0 10 -18 10 -40z
m-7020 -256 c85 -93 166 -182 181 -199 14 -16 78 -87 143 -157 106 -116 116
-130 116 -165 l0 -38 -108 110 c-233 238 -503 557 -521 614 -6 22 -22 50 -36
63 -14 12 -25 28 -24 33 0 11 22 -12 249 -261z m4702 191 c138 -84 299 -123
473 -112 99 6 230 43 299 83 22 13 60 34 84 46 l43 23 87 -23 c86 -23 244 -90
255 -109 3 -5 -5 -32 -18 -59 -13 -27 -27 -78 -30 -114 -9 -94 -11 -98 -42
-92 -18 3 -24 1 -19 -7 5 -8 -22 -11 -98 -11 -82 0 -106 3 -106 14 0 14 -115
26 -252 26 -63 0 -68 -1 -69 -22 l-2 -23 -4 23 c-4 20 -10 22 -79 22 -57 0
-74 3 -74 14 0 20 -165 34 -193 17 -11 -7 -31 -9 -49 -6 -20 5 -33 3 -38 -5
-5 -8 -39 -15 -84 -18 -66 -4 -76 -7 -76 -23 0 -18 -10 -19 -149 -18 -126 0
-150 3 -155 16 -5 12 -15 14 -44 9 l-38 -6 -12 85 c-6 46 -20 104 -31 129 -12
25 -21 49 -21 54 0 24 285 129 357 132 7 0 45 -20 85 -45z m4654 19 c27 -7 57
-104 79 -259 9 -60 19 -120 22 -132 5 -21 2 -23 -35 -23 -38 0 -41 2 -55 43
-20 55 -77 305 -77 334 0 12 8 27 18 32 20 12 21 12 48 5z m209 -13 c-6 -5
-21 -12 -35 -16 -22 -7 -23 -6 -11 9 7 9 23 16 34 16 13 0 17 -4 12 -9z m-503
-56 c-4 -51 -12 -76 -22 -70 -5 3 -7 12 -4 19 3 7 -2 16 -10 19 -32 13 -10 71
24 64 10 -2 14 -12 12 -32z m766 -6 c-13 -23 -33 -61 -45 -85 -13 -24 -28 -44
-34 -44 -6 0 -9 4 -7 8 45 110 74 162 90 162 17 0 17 -3 -4 -41z m-7920 -27
c3 -16 -2 -22 -17 -22 -24 0 -35 15 -27 36 9 23 40 13 44 -14z m360 -45 c4
-18 -14 -22 -37 -8 -7 5 -10 14 -6 20 10 17 39 9 43 -12z m1979 -142 c1 -77
-1 -111 -6 -95 -9 24 -9 24 -10 3 -1 -19 -5 -22 -30 -17 -24 5 -188 -30 -242
-51 -8 -3 -28 -1 -43 5 -23 8 -25 12 -14 26 19 23 62 66 89 89 13 11 71 60
128 108 93 77 106 86 115 70 5 -10 11 -72 13 -138z m1827 73 c41 -35 75 -69
75 -75 1 -7 6 -12 13 -10 6 1 17 -8 23 -20 7 -13 14 -20 18 -17 7 7 28 -7 88
-60 24 -21 35 -34 24 -28 -11 6 -28 19 -38 30 -20 22 -74 23 -69 2 1 -6 -2 -9
-8 -5 -6 3 -8 11 -5 16 4 5 -29 9 -79 9 -47 0 -86 4 -86 9 0 5 -11 11 -25 13
-22 5 -25 2 -26 -26 -1 -29 -2 -28 -10 9 -10 49 -11 137 -2 188 7 47 12 46
107 -35z m3022 25 c39 -65 59 -112 68 -153 9 -48 -3 -32 -64 82 -43 82 -54
118 -35 118 2 0 16 -21 31 -47z m-9035 10 c13 -16 12 -17 -3 -4 -10 7 -18 15
-18 17 0 8 8 3 21 -13z m1867 -6 c2 -10 0 -17 -5 -16 -23 4 -32 -4 -38 -30 -3
-16 -13 -35 -21 -42 -21 -18 -20 74 2 96 21 20 58 16 62 -8z m327 -21 c0 -25
-16 -30 -39 -13 -24 17 -12 39 17 35 14 -2 22 -10 22 -22z m205 -32 c0 -16
-36 -19 -45 -4 -4 6 -1 17 5 26 14 16 40 2 40 -22z m-941 -30 c-15 -18 -28
-18 -36 2 -8 20 17 36 34 22 10 -8 10 -14 2 -24z m704 8 c3 -4 -6 -21 -20 -37
-17 -20 -23 -24 -18 -10 4 11 10 28 12 38 6 18 18 23 26 9z m203 -29 c-3 -8
-6 -19 -6 -24 0 -5 -14 -2 -31 6 -29 16 -30 17 -14 35 14 15 22 17 37 9 12 -6
17 -17 14 -26z m7285 -14 c-25 -41 -27 -33 -4 16 10 20 19 32 21 27 2 -6 -6
-25 -17 -43z m-8153 -21 c-27 -21 -63 -24 -52 -5 4 6 16 22 28 35 19 22 21 22
34 5 11 -15 9 -20 -10 -35z m212 12 c27 -52 25 -60 -10 -60 -30 0 -30 1 -28
50 1 28 6 50 10 50 4 0 17 -18 28 -40z m-110 -145 c24 -47 41 -88 37 -92 -9
-8 -6 -12 -57 75 -42 72 -56 82 -78 60 -9 -9 -12 -8 -12 4 0 20 37 48 55 42 6
-3 31 -43 55 -89z m2687 53 c-3 -8 -6 -5 -6 6 -1 11 2 17 5 13 3 -3 4 -12 1
-19z m1533 -4 c0 -8 -6 -11 -15 -8 -8 4 -15 12 -15 20 0 8 6 11 15 8 8 -4 15
-12 15 -20z m600 1 c11 -13 77 -15 481 -15 318 0 469 -3 469 -10 0 -19 -38
-85 -62 -107 -57 -53 -82 -57 -384 -61 l-282 -4 -100 81 c-121 97 -158 131
-145 131 6 0 16 -7 23 -15z m-4669 -25 c4 -14 7 -53 8 -87 l1 -63 -34 0 c-33
0 -35 2 -45 50 -6 28 -11 69 -11 91 l0 40 37 -3 c30 -2 39 -8 44 -28z m1934
20 c-3 -5 -43 -38 -88 -72 -45 -33 -96 -74 -114 -91 l-31 -29 -249 4 c-240 3
-250 4 -296 28 -49 25 -107 90 -107 120 0 23 130 30 542 30 200 0 319 4 323
10 3 6 11 10 16 10 6 0 7 -4 4 -10z m-2155 -20 c0 -5 -2 -10 -4 -10 -3 0 -8 5
-11 10 -3 6 -1 10 4 10 6 0 11 -4 11 -10z m457 -25 c1 -17 4 -43 8 -60 7 -40
-4 -54 -45 -57 -33 -3 -35 -1 -38 31 -2 23 3 43 17 62 12 16 21 35 21 44 0 31
35 12 37 -20z m1815 8 c-6 -2 -10 -8 -8 -12 3 -4 -1 -8 -9 -8 -11 0 -12 4 -4
14 6 7 17 13 23 12 7 0 6 -2 -2 -6z m2509 -10 c13 -16 12 -17 -3 -4 -10 7 -18
15 -18 17 0 8 8 3 21 -13z m3101 -18 c359 0 372 -2 332 -46 -16 -18 -38 -19
-348 -18 -182 1 -342 4 -356 8 -25 7 -36 31 -26 57 4 11 13 12 33 7 16 -5 180
-8 365 -8z m-5648 -13 c3 -5 -1 -9 -9 -9 -8 0 -12 4 -9 9 3 4 7 8 9 8 2 0 6
-4 9 -8z m-3095 -117 c16 -8 40 -28 54 -44 74 -89 18 -239 -96 -256 l-47 -7 0
-84 c0 -68 -3 -84 -15 -84 -12 0 -15 15 -15 76 0 74 -20 144 -41 144 -5 0 -9
9 -9 21 0 11 -4 18 -9 14 -11 -6 -16 1 -25 38 -4 19 -3 26 4 22 5 -3 10 -17
10 -31 0 -14 4 -23 9 -19 5 3 16 -4 24 -15 22 -32 79 -51 118 -40 42 12 42 12
34 0 -3 -6 1 -7 10 -4 9 4 14 12 11 20 -3 7 3 23 13 36 27 34 32 78 14 116
-19 40 -59 62 -112 62 -33 0 -49 -7 -81 -36 -22 -20 -40 -43 -40 -50 0 -8 -4
-14 -10 -14 -16 0 -12 63 6 89 40 56 131 78 193 46z m9021 -55 c0 -58 -10 -82
-31 -77 -11 3 -17 1 -13 -4 3 -5 -4 -9 -15 -9 -16 0 -21 8 -24 38 -4 36 -4 36
-5 -8 -2 -28 -5 -40 -11 -32 -5 8 -13 -43 -20 -125 -19 -214 -33 -316 -47
-344 -22 -44 -76 -63 -160 -56 -90 7 -106 15 -133 72 -22 46 -49 59 -58 27 -2
-10 -12 -18 -22 -19 -15 -1 -20 11 -30 70 -11 69 -33 281 -45 434 l-6 73 310
-2 310 -3 0 -35z m-7494 -12 c-4 -13 -6 -82 -6 -155 0 -72 -2 -142 -5 -155 -9
-35 -61 -57 -108 -45 -25 6 -47 6 -60 0 -29 -13 -47 -6 -47 18 0 17 -8 19 -60
19 -47 0 -60 -3 -60 -15 0 -11 -11 -15 -40 -15 -30 0 -38 -3 -34 -14 3 -8 1
-17 -5 -20 -14 -9 -135 52 -176 88 l-34 31 -3 143 -3 142 324 0 323 0 -6 -22z
m-1558 -40 c21 -21 14 -66 -12 -83 -35 -23 -66 -5 -66 38 0 38 15 57 45 57 12
0 26 -5 33 -12z m5152 -12 c157 -52 272 -150 339 -288 38 -80 138 -350 216
-588 21 -63 60 -180 87 -260 27 -80 67 -212 90 -294 l41 -149 -16 -78 c-8 -43
-26 -99 -39 -125 -30 -62 -138 -159 -214 -194 -197 -92 -572 -126 -1349 -124
-540 2 -857 26 -1043 80 -149 43 -237 101 -305 201 -69 101 -84 230 -43 388
63 247 341 1041 409 1168 58 111 162 205 267 242 116 42 147 44 840 41 612 -1
669 -3 720 -20z m-5585 -58 c4 -34 11 -48 22 -48 10 0 14 6 10 20 -5 20 8 29
15 9 2 -5 11 -7 22 -3 14 5 15 9 4 15 -8 5 -9 9 -2 9 30 0 37 -32 35 -156 -1
-85 2 -130 10 -140 10 -12 1 -14 -60 -14 -39 0 -71 3 -71 8 0 15 40 32 67 28
15 -2 20 -1 10 1 -22 6 -16 29 6 27 9 -1 14 2 11 7 -7 12 -41 11 -49 -1 -13
-22 -25 -8 -25 30 l0 40 40 0 40 0 0 40 c0 40 0 40 -39 40 l-39 0 -10 -92 c-9
-90 -9 -87 -9 82 0 96 2 168 3 160 2 -8 6 -36 9 -62z m9474 -11 c1 -5 -3 -5
-9 -2 -5 3 -10 16 -9 28 0 21 1 21 9 2 5 -11 9 -24 9 -28z m-6169 -13 c0 -20
63 -156 89 -193 27 -37 27 -63 1 -79 -12 -7 -18 -17 -15 -22 3 -5 0 -7 -8 -5
-7 3 -22 -4 -32 -15 -19 -21 -18 -21 3 -27 20 -5 26 -15 23 -35 -3 -20 28 -5
32 15 3 12 4 -7 3 -42 l-1 -64 -63 -39 c-86 -53 -175 -81 -237 -76 -55 5 -141
51 -129 70 4 7 3 8 -4 4 -18 -11 -42 48 -42 104 0 103 89 220 275 360 83 62
105 71 105 44z m3180 -52 c108 -88 217 -203 241 -256 22 -49 26 -148 5 -165
-14 -12 -94 -1 -143 19 -15 6 -23 5 -27 -6 -3 -8 -12 -14 -21 -14 -11 0 -15
-10 -15 -35 0 -33 -7 -40 -37 -36 -7 1 -13 -3 -13 -9 0 -5 -7 -10 -16 -10 -8
0 -13 4 -10 9 3 5 0 9 -7 8 -34 -1 -48 4 -41 15 4 6 3 8 -4 5 -15 -10 -43 3
-35 16 4 6 0 8 -10 4 -10 -4 -37 10 -72 36 -31 23 -51 43 -45 45 6 2 20 -4 31
-14 17 -16 19 -16 19 -1 0 10 -4 17 -10 17 -5 0 -10 9 -10 20 0 13 7 20 20 20
13 0 20 7 20 19 0 11 5 21 12 23 7 3 -2 13 -20 23 -18 11 -32 23 -32 26 0 4
-8 16 -17 25 -17 17 -17 18 0 11 15 -5 18 -2 15 16 -2 12 -7 25 -11 28 -4 3 0
12 9 20 15 12 17 12 9 0 -6 -10 -4 -12 4 -6 7 4 35 54 63 111 27 57 52 104 56
104 4 0 45 -31 92 -68z m-6318 -4 c9 -14 18 -63 22 -125 l7 -103 -31 0 -30 0
0 125 c0 69 4 125 9 125 5 0 15 -10 23 -22z m2888 -6 c0 -5 -13 -20 -28 -35
-26 -25 -31 -26 -67 -16 -73 20 -67 28 40 52 34 8 55 7 55 -1z m4125 -22 c24
-6 25 -8 8 -9 -31 -1 -71 -21 -77 -38 -5 -11 -1 -13 17 -7 102 33 180 32 232
-2 43 -28 95 -89 95 -111 0 -16 -26 -17 -36 -2 -10 17 -86 49 -117 49 -15 0
-44 -7 -65 -16 l-37 -16 66 -22 c36 -11 116 -47 177 -79 122 -63 143 -88 107
-127 -25 -28 -61 -25 -146 10 -41 16 -75 30 -77 30 -2 0 -2 8 0 18 5 28 -66
20 -143 -16 -87 -42 -136 -51 -251 -52 -110 0 -103 -7 -111 97 -2 31 -15 74
-31 104 -14 28 -26 53 -26 55 0 9 161 84 181 84 11 0 36 7 55 16 42 20 114 43
134 42 8 0 29 -4 45 -8z m-4272 -31 c34 -11 64 -23 66 -25 2 -2 -14 -25 -36
-51 -47 -56 -70 -98 -89 -164 -14 -46 -17 -49 -48 -49 -18 0 -66 -11 -106 -25
-84 -29 -167 -33 -176 -10 -11 27 23 62 83 85 32 13 94 43 139 67 45 23 93 43
108 43 30 0 33 8 9 26 -19 14 -89 19 -95 7 -1 -5 -22 -18 -45 -31 -43 -23 -43
-23 -43 -2 0 45 46 103 105 134 39 21 54 20 128 -5z m-2340 -76 c21 -82 21
-83 2 -83 -8 0 -17 12 -21 28 -3 15 -10 44 -15 65 -10 36 -6 57 9 57 4 0 15
-30 25 -67z m-296 -70 c-2 -16 -4 -3 -4 27 0 30 2 43 4 28 2 -16 2 -40 0 -55z
m193 11 c0 -21 -4 -33 -10 -29 -5 3 -10 22 -10 41 0 21 4 33 10 29 6 -3 10
-22 10 -41z m1403 9 c-13 -2 -33 -2 -45 0 -13 2 -3 4 22 4 25 0 35 -2 23 -4z
m6437 -15 c19 -6 51 -19 70 -29 49 -26 130 -108 132 -133 4 -64 8 -61 -67 -68
-39 -3 -175 -5 -302 -4 -210 2 -234 4 -253 21 -26 23 -26 80 -1 122 24 38 126
91 197 102 60 9 177 3 224 -11z m-7042 -140 l-3 -53 -62 -3 c-49 -2 -63 0 -63
11 0 8 -11 31 -25 51 -14 20 -25 38 -25 40 0 2 41 4 91 5 l90 2 -3 -53z m1190
17 c-10 -16 -18 -37 -18 -46 0 -13 -25 -16 -180 -18 l-180 -2 0 48 0 48 198 0
199 0 -19 -30z m5342 9 c-6 -14 -10 -36 -10 -50 0 -23 -2 -24 -70 -24 -64 0
-70 2 -70 21 0 23 -18 60 -34 71 -6 4 35 8 91 8 l103 0 -10 -26z m1048 -26 l3
-48 -123 0 -123 0 -16 50 -16 51 136 -3 136 -3 3 -47z m-8097 13 c25 -30 24
-58 -2 -71 -28 -15 -541 -11 -572 4 -25 13 -34 57 -15 73 22 18 63 21 321 19
249 -1 249 -1 268 -25z m2759 -4 c0 -2 -20 -18 -45 -36 -25 -18 -45 -28 -45
-23 0 5 17 21 38 35 34 24 52 32 52 24z m3147 -103 c-3 -3 -12 -4 -19 -1 -8 3
-5 6 6 6 11 1 17 -2 13 -5z m49 -20 c-9 -8 -16 -19 -16 -22 0 -4 -9 -13 -20
-20 -17 -10 -25 -10 -48 2 -25 14 -25 15 -5 16 12 0 23 -5 25 -10 2 -6 13 -4
26 6 13 9 21 22 18 30 -4 9 2 14 15 14 19 0 19 -1 5 -16z m-133 -45 c-33 -12
-29 -15 20 -12 l42 2 -35 -9 c-19 -5 -52 -7 -74 -4 -37 6 -37 6 -15 18 13 7
38 13 54 13 27 1 28 0 8 -8z m-3699 -46 c8 -46 33 -108 59 -145 l18 -28 -1741
0 -1740 0 -10 26 c-17 42 -12 145 7 166 15 17 82 18 1708 18 l1693 0 6 -37z
m7014 25 c7 -7 12 -43 12 -93 0 -50 -5 -86 -12 -93 -9 -9 -376 -12 -1590 -12
l-1578 0 25 38 c13 21 32 68 41 105 l17 67 1536 0 c1182 0 1540 -3 1549 -12z
m-9422 -290 c6 -7 5 -908 -1 -908 -4 -1 -24 25 -45 57 -81 122 -128 159 -190
149 l-40 -6 0 361 0 362 136 -6 c75 -3 138 -7 140 -9z m8312 -756 l2 -763
-102 3 -103 3 -5 121 c-6 135 -14 156 -77 195 -38 24 -41 24 -324 24 l-286 0
-36 -25 c-75 -54 -82 -71 -81 -202 l1 -118 -211 0 c-183 0 -216 -3 -251 -19
-59 -27 -100 -65 -125 -118 -26 -54 -25 22 -19 -793 4 -485 4 -485 27 -532 13
-27 35 -56 48 -67 13 -10 24 -21 24 -23 0 -3 -229 -6 -510 -7 -310 -1 -510 2
-510 7 0 5 7 26 15 45 33 79 8 171 -60 223 -30 22 -35 33 -35 66 0 100 -57
124 -484 203 -112 20 -451 65 -496 65 -6 0 -10 43 -10 108 0 102 -1 110 -24
131 -14 13 -40 26 -58 30 l-33 7 0 164 0 165 70 8 c94 10 108 25 115 120 l5
72 320 12 c201 7 350 17 400 27 253 50 407 225 355 405 -8 31 -6 39 34 95 98
138 127 291 92 479 -16 82 -102 379 -165 564 l-28 82 91 3 c50 2 618 3 1261 3
l1170 0 3 -763z m532 206 c0 -310 0 -939 1 -1398 1 -459 1 -901 0 -982 l-1
-148 -85 0 -86 0 30 38 c17 20 39 58 51 83 19 44 20 73 27 530 9 703 9 728
-15 775 -23 45 -63 85 -109 108 l-33 17 0 764 0 764 68 4 c37 2 86 4 110 5
l42 2 0 -562z m-9027 -238 c36 -28 114 -135 147 -200 15 -30 42 -100 59 -154
30 -93 33 -113 38 -287 l6 -188 -64 -63 c-56 -56 -185 -146 -194 -137 -2 2 -5
95 -7 207 -2 138 1 205 8 210 6 4 25 27 42 51 32 43 42 81 22 81 -5 0 -10 -4
-10 -8 0 -4 -17 -34 -37 -66 -30 -50 -38 -56 -44 -40 -25 66 -30 76 -34 72 -3
-2 2 -29 11 -58 13 -43 15 -92 12 -246 -1 -106 -6 -195 -10 -199 -8 -8 -185
104 -215 137 -34 36 -45 75 -50 183 -10 186 25 356 105 510 46 87 99 158 143
190 40 30 40 30 72 5z m423 -357 c4 -45 2 -126 -4 -192 l-11 -115 -58 -58
c-31 -32 -60 -58 -64 -58 -3 0 -9 50 -13 111 -4 61 -9 116 -12 124 -3 8 13 26
39 44 39 27 87 85 87 105 0 4 -27 -22 -59 -56 -33 -35 -63 -59 -67 -55 -15 15
-17 136 -3 154 25 29 102 73 130 73 27 0 27 -2 35 -77z m-805 40 c28 -15 52
-35 54 -47 7 -29 -8 -109 -21 -113 -7 -2 -30 15 -53 39 -28 29 -41 38 -41 26
0 -17 54 -78 84 -95 16 -9 17 -21 9 -132 l-8 -123 -41 30 c-23 17 -52 45 -65
64 -23 31 -24 41 -24 188 0 85 3 163 7 173 10 24 42 21 99 -10z m8507 -134
c53 -13 92 -43 92 -71 0 -18 -1 -18 -38 1 -60 30 -143 41 -321 41 -169 -1
-222 -10 -260 -44 -18 -16 -51 -22 -51 -8 0 27 42 71 77 80 54 14 443 15 501
1z m-8773 -38 c104 -32 112 -38 119 -89 3 -25 5 -47 3 -49 -2 -2 -29 15 -60
37 -30 22 -59 40 -63 40 -13 0 68 -80 103 -101 25 -16 34 -30 42 -70 17 -80
18 -79 -36 -64 -27 7 -77 23 -113 36 l-65 24 -38 77 c-39 79 -54 135 -44 163
9 21 77 20 152 -4z m1342 2 c9 -23 -12 -115 -41 -178 -17 -37 -34 -59 -57 -71
-40 -20 -171 -65 -176 -60 -2 2 1 33 7 69 11 63 14 68 64 106 70 52 91 74 77
79 -6 2 -32 -13 -58 -34 -77 -62 -74 -60 -67 -23 3 19 7 43 9 55 3 15 23 27
77 46 87 32 155 36 165 11z m7373 -183 l0 -60 -182 2 -183 3 0 52 -1 52 146 4
c80 1 162 4 183 5 l37 2 0 -60z m749 -155 c62 -36 69 -56 74 -199 4 -125 3
-131 -19 -153 l-23 -23 -277 2 -277 3 -4 25 c-7 49 -25 79 -58 94 -27 13 -79
16 -307 16 -240 0 -277 -2 -308 -18 -35 -17 -55 -46 -65 -94 l-5 -28 -271 0
c-167 0 -278 4 -290 10 -17 10 -19 23 -19 158 0 194 11 211 145 221 39 3 430
6 870 6 782 0 801 0 834 -20z m-9437 -60 c68 -14 217 -74 218 -87 0 -5 -66 -9
-147 -10 -202 -3 -221 -3 -273 6 l-45 8 31 -20 c18 -11 35 -26 39 -33 9 -14
-31 -48 -56 -49 -28 0 -105 138 -97 176 2 11 15 22 33 26 41 9 216 -1 297 -17z
m1478 7 l23 -19 -32 -65 c-51 -103 -101 -136 -122 -81 -6 17 -2 30 17 53 17
20 21 30 12 30 -8 0 -19 -5 -26 -12 -8 -8 -74 -12 -212 -14 -110 -1 -200 0
-200 1 0 8 83 50 140 70 149 53 357 72 400 37z m7357 -267 c2 -7 -100 -10
-292 -10 -162 0 -295 3 -295 6 0 3 3 9 7 12 11 12 576 3 580 -8z m-656 -195
c8 -76 27 -110 74 -137 39 -23 44 -23 305 -21 211 2 269 6 287 17 33 23 62 82
69 144 l7 57 166 0 c91 0 222 -3 291 -6 l125 -7 -3 -161 c-3 -98 -7 -153 -12
-141 -8 19 -9 19 -9 -2 -2 -43 -12 -53 -52 -53 -31 0 -39 -4 -39 -18 0 -10 -6
-19 -14 -19 -8 0 -11 8 -8 19 2 10 0 18 -6 18 -6 0 -14 -21 -17 -47 -9 -70
-21 -100 -54 -141 -16 -20 -29 -41 -30 -47 0 -5 -4 -10 -8 -11 -5 0 -29 -11
-55 -22 -25 -12 -60 -25 -77 -28 -17 -4 -31 -9 -31 -13 0 -3 -37 -5 -82 -5
-46 1 -68 0 -50 -3 23 -3 32 -9 32 -23 0 -15 -9 -19 -42 -22 -40 -3 -43 -5
-46 -35 l-3 -33 -235 0 -234 0 0 40 0 40 73 0 c39 0 79 5 87 10 10 7 -12 10
-72 10 -52 0 -88 4 -88 10 0 6 -33 10 -80 10 -64 0 -80 -3 -80 -15 0 -10 -11
-15 -35 -15 -19 0 -35 -4 -35 -10 0 -5 -20 -10 -45 -10 -39 0 -45 3 -45 21 0
11 5 17 10 14 6 -3 20 -3 33 2 15 5 -14 10 -88 13 -60 3 -114 2 -119 -2 -6 -5
11 -8 37 -8 40 0 47 -3 47 -20 0 -17 -7 -20 -50 -20 -43 0 -50 3 -48 18 2 14
-6 18 -49 20 -41 2 -53 7 -58 23 -6 16 -14 19 -61 17 -44 -2 -54 -6 -54 -20 0
-11 -8 -18 -20 -18 -13 0 -20 7 -20 20 0 19 -24 26 -67 21 -10 -2 -13 68 -13
318 l0 320 108 4 c59 1 190 3 292 2 l185 0 6 -55z m-7046 -11 c4 -6 4 -13 1
-17 -4 -3 -231 -8 -504 -10 -315 -3 -502 -8 -509 -14 -8 -7 -13 -37 -13 -85
l0 -74 -47 3 -48 3 -3 103 -3 102 560 0 c386 0 562 -3 566 -11z m8352 -351
c-2 -13 -4 -5 -4 17 -1 22 1 32 4 23 2 -10 2 -28 0 -40z m-9382 23 c3 -6 10
-94 15 -198 6 -103 13 -200 16 -215 6 -25 4 -28 -20 -28 -15 0 -28 6 -31 13
-3 11 -9 73 -32 360 l-6 77 26 0 c14 0 28 -4 32 -9z m5580 -95 c272 -31 534
-78 574 -103 21 -14 22 -16 8 -31 -15 -14 -27 -13 -134 11 -165 38 -363 73
-533 94 -173 22 -639 24 -815 5 -138 -16 -411 -64 -547 -97 -133 -32 -148 -32
-148 0 0 27 -4 25 120 50 209 40 471 75 670 89 135 9 672 -3 805 -18z m2235
-210 c0 -2 -8 -10 -17 -17 -16 -13 -17 -12 -4 4 13 16 21 21 21 13z m-2930
-88 c-23 -52 -25 -116 -5 -164 8 -20 12 -40 9 -45 -6 -10 -314 -13 -314 -4 0
4 7 20 16 37 16 31 16 127 0 174 -8 21 -4 22 126 31 73 6 145 11 160 11 l27 2
-19 -42z m555 30 c77 -6 141 -12 143 -13 1 -1 -5 -18 -13 -38 -19 -46 -19 -98
0 -144 8 -19 15 -39 15 -44 0 -11 -307 -12 -314 -1 -3 5 2 28 10 52 17 49 11
126 -12 173 -18 33 -26 32 171 15z m-1205 -1 c0 -1 -9 -20 -20 -42 -25 -49
-26 -110 -1 -158 l19 -37 -72 0 c-39 0 -82 -3 -95 -7 -21 -5 -23 -4 -16 13 28
66 34 115 20 160 -11 37 -11 46 0 50 31 12 165 29 165 21z m1791 -8 l69 -12
-6 -66 c-4 -46 -2 -79 9 -108 8 -23 12 -45 9 -48 -3 -3 -43 -5 -90 -5 -76 0
-83 2 -77 18 39 92 41 132 11 194 -9 17 -16 33 -16 35 0 5 17 4 91 -8z m-2091
-24 c0 -55 -92 -90 -137 -53 -14 11 -18 60 -6 71 3 4 37 7 75 7 66 0 68 -1 68
-25z m1227 9 c10 -27 -19 -64 -59 -76 -50 -15 -104 8 -114 48 -9 36 7 43 94
43 55 0 75 -4 79 -15z m1195 10 c26 -7 29 -31 7 -58 -17 -22 -29 -26 -69 -26
-56 0 -80 18 -80 60 0 28 1 28 63 28 34 0 69 -2 79 -4z m1813 -75 c4 -6 14 -8
24 -4 12 5 13 3 4 -6 -9 -9 -17 -8 -34 5 -13 9 -18 16 -12 16 7 0 15 -5 18
-11z m222 5 c-3 -3 -12 -4 -19 -1 -8 3 -5 6 6 6 11 1 17 -2 13 -5z m286 -1
c-29 -2 -77 -2 -105 0 -29 2 -6 3 52 3 58 0 81 -1 53 -3z"/>
<path d="M4686 9564 c-20 -20 -20 -27 3 -55 16 -21 22 -22 45 -11 30 14 34 42
8 65 -23 21 -36 21 -56 1z"/>
<path d="M6150 9565 c-7 -8 -10 -25 -6 -39 11 -45 71 -45 82 0 8 30 -11 54
-41 54 -12 0 -28 -7 -35 -15z"/>
<path d="M5848 9133 c-1 -5 -2 -70 -2 -145 l-1 -138 163 0 163 0 -3 143 -3
142 -157 3 c-87 1 -159 -1 -160 -5z"/>
<path d="M12505 9038 c-33 -19 -35 -31 -9 -65 13 -17 24 -33 24 -35 0 -2 -28
-3 -62 -3 l-63 0 0 -125 0 -125 173 -3 c141 -2 173 0 178 12 3 7 6 65 7 127
l2 114 -75 5 -75 5 28 19 c15 10 27 27 27 37 0 39 -107 65 -155 37z m121 -39
c8 -13 -33 -48 -57 -49 -9 0 -24 9 -35 21 -16 17 -16 22 -4 29 21 14 87 12 96
-1z"/>
<path d="M8278 9003 c6 -2 18 -2 25 0 6 3 1 5 -13 5 -14 0 -19 -2 -12 -5z"/>
<path d="M5460 8560 l0 -210 157 0 156 0 -6 122 c-4 66 -7 161 -7 210 l0 88
-150 0 -150 0 0 -210z"/>
<path d="M5852 8558 l3 -211 155 -1 155 -1 3 213 2 212 -160 0 -160 0 2 -212z"/>
<path d="M12270 8410 l0 -100 44 0 c23 0 71 3 105 6 l61 7 0 58 c0 33 4 59 10
59 5 0 9 16 7 35 l-2 35 -112 0 -113 0 0 -100z m115 76 c6 -2 -16 -5 -48 -7
-38 -3 -57 0 -57 7 0 10 69 10 105 0z m-93 -126 c-2 -22 -6 -40 -8 -40 -2 0
-4 18 -4 40 0 22 3 40 8 40 4 0 6 -18 4 -40z"/>
<path d="M12638 8493 c28 -24 43 -153 18 -153 -9 0 -16 -7 -16 -15 0 -12 13
-15 58 -15 55 0 58 1 75 33 14 25 18 51 15 100 l-3 67 -84 0 c-80 0 -83 -1
-63 -17z"/>
<path d="M5952 8273 l-102 -4 2 -212 3 -212 155 0 155 0 0 215 0 215 -55 1
c-30 0 -101 -1 -158 -3z"/>
<path d="M5460 8060 l0 -210 150 0 150 0 0 210 0 210 -150 0 -150 0 0 -210z"/>
<path d="M12260 7928 c0 -18 3 -70 7 -115 l6 -83 118 0 119 0 0 115 0 115
-125 0 -125 0 0 -32z"/>
<path d="M12627 7942 c20 -12 46 -95 44 -139 -1 -39 1 -43 23 -43 14 0 37 10
51 23 24 21 25 25 18 77 -8 53 -10 55 -43 61 -19 4 -27 7 -17 8 9 0 17 6 17
11 0 6 -24 10 -52 10 -29 0 -48 -4 -41 -8z"/>
<path d="M5953 7763 l-103 -4 0 -124 0 -125 160 0 161 0 -3 128 -3 127 -55 1
c-30 0 -101 -1 -157 -3z"/>
<path d="M5460 7688 c0 -40 -3 -97 -6 -125 l-7 -53 162 0 161 0 0 125 0 125
-155 0 -155 0 0 -72z"/>
<path d="M4692 7478 c-28 -28 -3 -72 39 -66 30 4 47 33 33 56 -14 21 -55 27
-72 10z"/>
<path d="M12270 7376 l0 -116 115 0 115 0 0 110 0 110 -77 0 c-43 0 -95 3
-115 6 l-38 7 0 -117z"/>
<path d="M4392 7170 c0 -19 2 -27 5 -17 2 9 2 25 0 35 -3 9 -5 1 -5 -18z"/>
<path d="M13085 6755 c-14 -13 -25 -35 -25 -49 0 -20 -9 -30 -38 -45 -50 -26
-104 -82 -137 -144 -25 -45 -27 -56 -22 -118 11 -128 90 -225 214 -264 116
-37 249 22 318 140 32 53 43 154 25 211 -16 50 -81 138 -120 160 -22 13 -30
26 -30 45 0 41 -9 58 -41 74 -46 24 -115 19 -144 -10z m95 -69 c0 -2 -7 -7
-16 -10 -8 -3 -12 -2 -9 4 6 10 25 14 25 6z m-56 -153 c-3 -54 -9 -102 -12
-107 -5 -9 -107 -3 -132 8 -9 3 -24 0 -34 -7 -44 -32 43 -170 133 -209 108
-46 251 37 267 155 9 67 -2 77 -92 77 l-74 0 0 90 c0 102 6 108 70 69 107 -64
148 -161 116 -272 -34 -116 -162 -182 -287 -147 -46 13 -124 81 -149 131 -21
41 -27 133 -10 144 6 4 16 21 24 38 19 44 75 96 122 112 67 24 66 26 58 -82z
m89 -205 c-2 -25 2 -45 9 -51 9 -6 7 -7 -6 -3 -14 5 -17 2 -12 -11 4 -10 4
-14 0 -11 -3 4 -13 1 -21 -7 -36 -36 -161 25 -199 98 l-15 27 83 1 c46 1 97 5
113 8 41 10 52 -1 48 -51z"/>
<path d="M11955 6148 c-3 -7 -4 -175 -3 -373 l3 -360 393 -3 392 -2 -2 372 -3
373 -388 3 c-305 2 -389 0 -392 -10z m723 -360 l3 -308 -336 0 -335 0 0 310 0
310 333 -2 332 -3 3 -307z"/>
<path d="M10454 9436 c-3 -8 7 -32 21 -55 23 -34 26 -46 20 -81 -7 -41 -7 -41
21 -38 27 3 29 6 26 38 -2 19 -8 39 -12 44 -5 5 4 26 22 49 25 31 28 41 17 48
-23 15 -109 11 -115 -5z"/>
<path d="M8982 9370 c0 -14 2 -19 5 -12 2 6 2 18 0 25 -3 6 -5 1 -5 -13z"/>
<path d="M7928 5563 c6 -2 18 -2 25 0 6 3 1 5 -13 5 -14 0 -19 -2 -12 -5z"/>
<path d="M7438 5483 c12 -2 32 -2 45 0 12 2 2 4 -23 4 -25 0 -35 -2 -22 -4z"/>
<path d="M7537 5483 c18 -2 50 -2 70 0 21 2 7 4 -32 4 -38 0 -55 -2 -38 -4z"/>
<path d="M10100 6319 c0 -5 5 -7 10 -4 6 3 10 8 10 11 0 2 -4 4 -10 4 -5 0
-10 -5 -10 -11z"/>
<path d="M10560 6650 c0 -5 5 -10 11 -10 5 0 7 5 4 10 -3 6 -8 10 -11 10 -2 0
-4 -4 -4 -10z"/>
<path d="M10020 5506 c0 -9 5 -16 10 -16 6 0 10 4 10 9 0 6 -4 13 -10 16 -5 3
-10 -1 -10 -9z"/>
<path d="M9770 5300 c0 -6 32 -10 75 -10 43 0 75 4 75 10 0 6 -32 10 -75 10
-43 0 -75 -4 -75 -10z"/>
<path d="M4480 4860 c0 -5 5 -10 11 -10 5 0 7 5 4 10 -3 6 -8 10 -11 10 -2 0
-4 -4 -4 -10z"/>
<path d="M7611 4471 c-7 -5 -12 -14 -10 -20 2 -6 10 -2 17 9 14 22 13 23 -7
11z"/>
<path d="M7727 4389 c7 -7 15 -10 18 -7 3 3 -2 9 -12 12 -14 6 -15 5 -6 -5z"/>
<path d="M10863 4438 c6 -22 5 -22 -8 -4 -8 11 -15 15 -15 10 0 -17 22 -33 36
-27 8 3 14 1 14 -4 0 -5 14 -10 30 -10 38 0 39 14 3 28 -16 6 -37 16 -47 21
-16 9 -18 7 -13 -14z"/>
<path d="M10705 4390 c3 -5 8 -10 11 -10 2 0 4 5 4 10 0 6 -5 10 -11 10 -5 0
-7 -4 -4 -10z"/>
<path d="M11658 1370 c-12 -38 -10 -66 3 -53 6 6 9 26 7 44 -3 32 -3 33 -10 9z"/>
<path d="M12790 1231 c-98 -7 -85 -21 19 -21 53 0 68 3 68 15 0 8 -1 14 -1 13
-1 -1 -39 -4 -86 -7z"/>
</g>
</svg>
